<mxfile host="Electron" modified="2024-02-16T05:48:04.198Z" agent="Mozilla/5.0 (Windows NT 10.0; Win64; x64) AppleWebKit/537.36 (KHTML, like Gecko) draw.io/21.2.8 Chrome/112.0.5615.165 Electron/24.2.0 Safari/537.36" etag="tqaz2ADvd8oKbj-wOxRd" version="21.2.8" type="device">
  <diagram name="Page-1" id="2XWkQP5S-hDbL94sL5Vg">
    <mxGraphModel dx="2298" dy="1180" grid="1" gridSize="10" guides="1" tooltips="1" connect="1" arrows="1" fold="1" page="1" pageScale="1" pageWidth="3300" pageHeight="4681" background="#999999" math="0" shadow="0">
      <root>
        <mxCell id="0" />
        <mxCell id="1" parent="0" />
        <mxCell id="APLwThIm-aDqV8bCMrbt-1" value="FileDialog" style="rounded=0;whiteSpace=wrap;html=1;fontSize=25;fillColor=#dae8fc;strokeColor=#6c8ebf;" parent="1" vertex="1">
          <mxGeometry x="1298" y="140" width="650" height="60" as="geometry" />
        </mxCell>
        <mxCell id="bsQjWlczo2JqPFiFKcjC-1" value="" style="shape=image;verticalLabelPosition=bottom;labelBackgroundColor=default;verticalAlign=top;aspect=fixed;imageAspect=0;image=data:image/png,iVBORw0KGgoAAAANSUhEUgAAAqAAAAIhCAYAAACR0Ai4AAAAAXNSR0IArs4c6QAAAARnQU1BAACxjwv8YQUAAAAJcEhZcwAADsMAAA7DAcdvqGQAAGliSURBVHhe7d0HgBT1/f//9x1wNGkWEBTlOESQZkQFAbtgwBo1Bs03IXaixChqjDESQ35RI4olmC+xxviPksTyNcRgADu22ILYFZB2FOkdrv3n/Zn57M7Oze7t7d3N7e49H/i5+cxnZmdn98bZ132mbMHAQYdWCQAAABCRQm8IAAAARIIACgAAgEgRQAEAABApAigAAAAiRQAFAABApAigAAAAiBQBFAAAAJEigAIAACBSBFAAAABEqtG/Camqii9iAgAAiFJBQYFXaxwN0gOqoTLdAgAAgGiFZbJkpSHUSwCNYkUBAAAQvWDOq4+sl3EArc+VAAAAQO6oawas9TmgBE4CNwAAyHX1ew5obc8pTTuAph883fnoGAUAAMhdiZmy5oBZmxCaVgBNL3xqV6xXBVDvOPoA5J/GvhIZqI345pp6u01nu64xgNb8oVdz8OSDEwAAIDfUFCDdycnnqXMATR0cw4NnpGGzEYJt9M8IAACyXc2RqwGkEfTqS1ioTBVEawyxyQJo8iCZZvB0xglrfrwbaByN8Hca0KREmAEQCX6hlpsvE9+P+gqioQG0NuEzYd7Q0BkeWAEAAJB9wgJlMEhWHzc/Td0v7QCaUfgMBM/kywhRm3kDMn8kAABA0xUeCz2+0BgMlv5AWZcQGgugqUNj8vDpf1yyemrpzpclGmF1c+wdAgAgZ1WPShHI4idNFjiT181PUw9KmE8DaE1hseaQ6QbU5s2bS9u2baWoRQspalkkzQqb2almiAzx9gEAkL7w/IM0FXhvYHlFhezevcspZbJ9+3YpLy9PCJjpBNIwOr3GAFpT+LTDdnvsIR06dJANG9bLzp07ZdeuXVJWVmamAQAAILe0aNFCWrZsKa1atZI999xLNm7aJFu2bDHTbMgMC57uoIYQmjqAJh56D4ZOO9xrrz1Nfc3q1YROAACAPKNhtHOXLtK8WXNZ8803pq0uIbSwruFzjz32kKrKKlmxfDnhEwAAIA9pxtOsp4fh27Xbw7QFM6Gf21S93Sr0hiklC5/NmzeTjh06yJo1q804AAAA8pdmPj3lUjOgSpYRla9aTZIAGu/99C/IFX+Ctm3ayvoN6+n5BAAAaAI0861fv17aOBkwnhETs2JidgzmSFdaPaDKLswMvHqLohbmgiMAAAA0DZr99I5HhpMJbd6s3mmZXEgATTz30y8WQr2fLYtayu5du8wYAAAA8p9mv6KiIqfmZEa3KWn4dJurTysYMHBQoLV6kk0YOkXHtH7ggQfIF59/bqYls0e79ub+oLWlJ7lu3bLZGwMAAEC26H3wwbJkyVJz1bt7wbszjF0BHxyan6ZuBQJoYu9nYgB1p8VDqBNADzhQvvgidQD93R13S0mvXt5YOLuCK1atNc+htm1eJz+/9iopLEz7LAEAAABEoHdvJ4AuXeLESifDOTnOBFEvaIYHUBWrJA+gNny6YTM+rkNbehxYcwD94wMPyzFHD/fG0jfvjbfkwnH/I82auVdZAQAANLTBgwfLQQcdFAtPQZp/vvzyS3nvvfe8luxw2mmnyn/+846sXh1+Z6IuXbrIkUccITP/+U+vpW40gH69xAmgzvtkizJ1txIbd4fmp6mrBg+gDz78J9l//xL5v9e+lILCKrc001IpYwb1kn27dJCtW7eZefVrPJ96fbGpF7fbnjKAfuc73zF35rc++eQT2bZtmxzhvLkvvviitGvXzmxAs2bN8uYIF1yOnlj7zDPPeGMio0ePlh07dsjLL7/stVR33HHHyYYNG2T+/PleCwAAyEVjx4412UG/ejKMfjPQqaeeKjNmzPBasoMGzKOOOkrefPPNaiE01bRM1TWANvjxbX2qgoJmsnjTVvl6yxZZsn2zLNu1SZaXbZSyskonyDrF+2c1K6rwaqlp0HziiSdM0fD31VdfmXpt31z/clauXCnnnXee+WUp3QhThU8AAJA/NDBp+NTbDYWVrVu3xkJVNtHsowFTg6bNMKohwmd9aPAAWlHpBst99mopBUXlsql8s3yzc52s3uF9jVM8dxqtOu2UNnuH/9URhbfeeksWL14sffv29VoAAACyXzCEZmv4VA0eQG2+/HT1clm8caVsLN8gO2SL7C7YatqrvD8ivA5badtxq7TZw51WW/pG6yH1MHqYXHs2tWg9lbVr10rr1q1NXecdNGhQrG6XoSUZ/zz+59L1s+26nv5lAwAA1JU/hGZr+FSRHIJXO5zA2aJ1mbRoVSbNW+6WFk4xnIRqw6fqs0936dWxpzeW2gknnBALdBrukhk6dKg5t9MeZle9UlyZv2XLloTzQi09FG+Xob2kutwgDZZ6PqqdT4OsnW/YsGGxaW+88YZ07drVtAMAkI/sZ3RNBU1PjQHU7cH0fpoLkWzRn+4wHSZ4OqVFSy2+AOpkT/9SenUqMSUd/nM3U6X7Tp06SXFxcWxD1+C39957e1Or0wuYwr7hyd+DqcsLsiHYfzGSXimnzx+cpuur55sCAJCv7Gd0TQX1R/OG7fn0H46vb/EM6OVC72J1/5RUGrwH1HLDpxs8i3RY5AbQeKhVVbK7rEx27Kj/r/d85513EjZ2Pdczmf33399c1e6nvzztcbWP1x7QdOlV9IqvLQUAAA3FHz61o8t/OL4hQmhdNHwALRDZtWuHDNm7RA7vdJAc1r63HNq2rwxs3c+0u7O4h+A1i1ZWVkqFU+qThkm9JVM69LxM7bEMC6j+ABl2+Nz2wvrP69Tn1efXaR07dowd+tcNgUPwAABkF+0Y01stJdOmTRuv8yy7BMOnla0htMb7gNoeSh3E6+64fhXnl198YeZLZvoDj8iJxw2X7du2xs70LCjUe3vqMiqlefMi821H5RUVUuEUDaDq3Q8W1HgfUD2P0v8m6xur51nqfTw16PnvA6r389QAaOnhe31s8D6geljcf9slDaT2Hp/+Zeh8Gkg1qPrnUf7zWbSn1IZZXSe9T6nSx+pj/I8DAACNK2dvRH/qqfKfd2q4Ef2RR8jMmfVzI/qDevf2vorTyXXOD9OZqEPztunQff/iQ/PT1FWDB9ArrrxaDj30UG+sOg2fWjR82udUH87/UO6eentefxOSBlrdiPX+pQAAALki6wOozmt7NWtLg6ld8Xyjh+kPOeQQcz4pAABALsn6AIq4ZKcBAAAA5BICKAAAACJV1wAa2W2YAAAAAEUABQAAQKQIoAAAAIhUQgA1p3iGSGg354LaimkBAABAU+JlQZMJ04iEsezooQcUAAAAkSKAAgAAIFIEUAAAAEQq4T6g9t6fyn8fUH/d+SGVZrxKDjzgQJk9+99mGgAAAJqGUaNOliVLlzi1AinUm3w6xdwP1LvfZ/A+oMpOU/SAAgAAIFIEUAAAAESKAAoAAIBIEUABAAAQKQIoAAAAIkUABQAAQKQIoAAAAIiUL4BWvwdomNiU5LMAAAAg33lZ0B8JgxEyWaakBxQAAACRIoACAAAgUgRQAAAARIoACgAAgEgRQAEAABApAigAAAAiRQAFAABApAigAAAAiBQBFAAAAJEigAIAACBSKQNowtcnBb5KKfyLlQAAANAUVMuCKXJjED2gAAAAiBQBFAAAAJEigAIAACBSBFAAAABEigAKAACASBFAAQAAECkCKAAAACJFAAUAAECkCKAAAACIFAEUAAAAkYoF0Bq+McmlM6U1IwAAAJoELx/6E2JYWvRHSHpAAQAAECkCKAAAACJFAAUAAECkCKAAAACIFAEUAAAAkSKAAgAAIFIEUAAAAESKAAoAAIBIEUABAAAQKQIoAAAAIkUABQAAQKS8AJrq+93daXYOMzRf5qnf+ZnqcQAAAMhHbgZ0iv8L3tPizk8PKAAAACJFAAUAAECkCKAAAACIFAEUAAAAkSKAAgAAIFIEUAAAAESKAAoAAIBIEUABAAAQKQIoAAAAIkUABQAAQKScAJrkK5S8r1byf8NSwpxJHgYAAIAmwMuCOkiMhXZC9bBom+gBBQAAQKQIoAAAAIgUARQAAACRIoACAAAgUgRQAAAARIoACgAAgEgRQAEAABApAigAAAAiRQAFAABApAigAAAAiBQBFAAAAJGqFkCrQr63M/hdnjoWMhcAAACaiGR5MCxKJqqiBxQAAADRIoACAAAgUgRQAAAARIoACgAAgEgRQAEAABApAigAAAAiRQAFAABApAigAAAAiBQBFAAAAJEigAIAACBSJoCGfvumN4yr8XuVAAAA0JT5QqWthX3NOz2gAAAAiBQBFAAAAJEigAIAACBSBFAAAABEigAKAACASBFAAQAAECkCKAAAACJFAAUAAECkCKAAAACIFAEUAAAAkSKAAgAAIFKFYd8DH1T9Wz0BAAAASzNiVVpJUbMnPaAAAACIFAEUAAAAkSKAAgAAIFIEUAAAAESKAAoAAIBIEUABAAAQKQIoAAAAIkUABQAAQKQIoAAAAIgUARQAAACRSj+AVvtuJachne9bAgAAQB4KBMFa5EJ6QAEAABApAigAAAAiRQAFAABApAigAAAAiBQBFAAAAJEigAIAACBSBFAAAABEigAKAACASBFAAQAAECkCKAAAACJFAAUAAECkEgJoVZX3JZ526PtST1OL/Yi3AwAAoImJRUGvUi0a2nZ3GMuYHnpAAQAAECkCKAAAACJFAAUAAECkCKAAAACIFAEUAAAAkSKAAgAAIFIEUAAAAESKAAoAAIBIEUABAAAQKQIoAAAAIlWrAGq+RMn5Yb5NKfEblQAAANDU2HAY+5keekABAAAQKQIoAAAAIkUABQAAQKQIoAAAAIgUARQAAACRIoACAAAgUgRQAAAARIoACgAAgEgRQAEAABApAigAAAAiFRpA7Vcpma/cDKjN1ywBAAAgT3mhUPNiMB/aDJksN9IDCgAAgEgRQAEAABApAigAAAAiRQAFAABApAigAAAAiBQBFAAAAJEigAIAACBSBFAAAABEigAKAACASBFAAQAAECkCKAAAACIVC6BVYV/8nkLt5gYAAEC+yTQP0gMKAACASBFAAQAAECkCKAAAACJFAAUAAECkCKAAAACIFAEUAAAAkSKAAgAAIFIEUAAAAESKAAoAAIBIEUABAAAQqZoDqPmKzmRftMQXcgIAADQ9VclTYJKvd/d/7Ts9oAAAAIgUARQAAACRIoACAAAgUgRQAAAARIoACgAAgEgRQAEAABApAigAAAAiRQAFAABApAigAAAAiBQBFAAAAJEigAIAACBSNQbQVN/2zjfBAwAAIC69dEgPKAAAACJFAAUAAECkCvoPGGj6Squq4l2mtq5Dt67D+LgtPXocKHPnzDHzAkDUdu/eLcuWLZMdO3ZIRUWF15r/OnToIN26dZOioiKvBQCiNXLkSFn89RIpKCgIFCdcOv+0ouPKDlWsjQAKIBdp+Pziiy9k7733NqWwsGkc0KmsrJT169fLmjVrpHfv3oRQAI2irgGUQ/AAclJpaal06dJFOnfu3GTCp9LXqoF7r732Mr2/AJCLCKAActKmTZukY8eO3ljToyFUTz0AgFxEAAWQs5o1a+bVmh597U3pvFcA+YUACgAAgEgRQAEAABApAiiA/LFjqbz251vlmvGXyGVX3STTZn4iG5feLyN7/o88u9GbpzFtek9m3H2HTJkyJVb+98UVUrX0T3LOkRfK02uceZb/MXvWFwAaSIoAGr8tk1u14+5tmQAgm+z46A9yep9D5aK/LJeOhxwqffbcIHMe/D/5qtKbIRs0Wycv/P4heWXxMnMFu5Y1WyukoMMgOeuCU6XvHu5s7GEBZLvE/ZRvzKnGx5LvzegBBZD7tr8uk773G9n9szdkwb/vk5uuvEKunjRNnn32F3J4c28eKZetKxfJotXbJZhJK3eslaWLFknpprJqu8uk0yp3ycYVi2Txys1S5ptQvmWlLF68UjaXeQ1Ble3l6J/eLffee68pvzr9AJF2/eTMH46Rg1p78wTUuEwAyDEEUAA5b9PLD8nfm18st1zSR1p6bQkK18uz44+So759qhxz0H4y9Oa3ZbuZsF3+e8+p0mv/gXLSGafIkJ77y5Br5sjamqZ987xceVRvOfzks+SUwwfK9x5f6TRukw+mjpZevYbJqacc5QxPkfs+2a1zV+N+wYdP6SNy+oCL5blN3nhM+ssEgFxCAAWQ46pk9Wefi/Q7THok+1Kg1Qtk9/eekw/nfyKfPDNW1j/6qLztJNDd798mF9zZSiZ/sES+WPCpLPn8Aen75GUy6cUtKactefoOea54qrz90X/lkxVfyuNnd5bdH0yRi+/bS6bOXygff/KlvPzTrXL35JlemPVptlqeuepUGTNmjIz59nlyz/vJA2XaywSAHEMABZD7CkQqy8urHVqP2WuYnHlMZ51N2vcZLCWyTtbvFFk67xXZevyP5NQDWpjZCvc+Tr43srl88M5SWZJiWpdhJ8t+c66QMRfeLXO/LpOWrZrJ0tdelPUdN8njE86Vc845T256cavs+OpTWVXteP8+ctQPfiyXXnqpXDr+fBnaOfm9TNNeJgDkGAIogBxXIN0G9JfCt5+Xd6sdwvYUNJfmNucVFHo7viqpqqyU8t27E4JroU53Zkg+rUBaDrhOXvpqtlyz30sy4dA+cv7fS6WyolIKDzhJLrnixzJ+/Hj58VW/k8fu/q508x4bU1Uo3Q4/Tc4880ynnCZD9k8WQKvSXyYA5BgCKICct8cxE2RCj3/KT378qHy23Z5fWS7rP/tUViT9sqAC6T50uLR9+c8yc2m5aalc+4rMmNtMho3oKQcknVYsm1csk60dBsq5v3lanrrxAPlg9ofS4bDB0uzdt2XrIcfLSSedJCcdP1C6dtlb9sx4L1sg+9X7MgEgO7AbA5D7igbINc/8XX64brIcte/esl9xsXTv3EX6/OhvsjJ4WbtPq6E3yoM/2SK/GLifHDzgEDmw7wQpHf+ITDqqdcpp6575oZR06SUDD+0rI+8uknHjj5Yux/5S7j3rM7nk4P2l76EDped+R8p1r272nslHzwNIU9t0lwkAOaag/4CBZvfsvyrTrVc5Q6/uFPPPVCtNm9Z79DhQ5s6Z4z4IACI0f/58GTBggDdmVcnujStlxTfbpLBDN9lvn7bSvHKXbN9ZJUVtWklzDX+Vu2X7jkpp4Yy38MJgxdbVsnT1Dmm7b3fp3DbxkHj4tArZvnaFrNpWJHt33Vfaxy5+cp5/w3JZtl6kQ9dusneb4OH1Ctm1baeTfNtKS/8kZ512OOvYonVLb32dTN3GqZv1S77MBQsWyKBBg7wxAIjOSSNHytdfL5GCggKnOIGyoNCt60TT5rbrX91at2ydHlAAeaRAijp2k+KDDpIDOzvhU/dzzVpKm7Ze+FSFRWbchk/VbI8uUlzSo1r4VOHTmkmbvQ+Qngf6w6dynr9Tdykp6R4SPlUzadk2ED6Vs06tbeA062vDp6ppmQCQewigAHJSs2bNpKIi6Qmeea8pv3YAuY8ACiAntW7dWtaubbp3xNywYYN06NDBGwOA3FI9gOrJnQHxFq9mBtXnA4CodO/eXdatW2dCaFPqDdTXunr1almzZo1068YNmQA0NpsHdZgkG/qypb3mqPpFSM7QrdmLjnSoLe7QlEqnOP969OjBRUgAGs3u3bvl888/N4Estg/Lc82bN5c999xT+vbtK0VFyb76CQAaVvwiJPfColhx/mmjO65zmhbTZplpBFAAAADURl0DKOeAAgAAIFIEUAAAAESKAAoAAIBIEUABAAAQKQIoAAAAIkUABQAAQKQIoAAAAIgUARQAAACRShpAzb3n/dx70bsFAAAAUL6M6I+J1bKkDz2gAAAAiBQBFAAAAJEigAIAACBSBFAAAABEigAKAACASBFAAQAAECkCKAAAACJFAAUAAECkCKAAAACIFAEUAAAAkSKAAgAAIFImgFb5vqwz2dd2arstRrIZAQAA0AQ4YdDLgwkZMSCsnR5QAAAARIoACgAAgEgRQAEAABApAiiAele14iX549SH5NVVXoOqWi4vTb9T/vz2Bq8hA8v/KCf1+L7830ZvvAFULpol0+6bJV+VeQ21FcE6AkCuI4ACWUwvEMzFIgWL5Nmpz8rX4muXHfL+n38vL64pSJi3tqWh35eCwq/kqYdfl80FOr5MnrryTLl25rpq86UqDb2ODVcye70UCqXplboigAINKOx/2tqUvFa5SzauWCSLV26WMt9LLd+yUhYvXimbU/ZAlsvWlYtk0ertUum1GFVlsrl0kSxcvl52VHhtKvhclbtl+7adUl7lLufrb3aEXKXp/A4qdsvy+Qtk5Y6tsmVHeeiVnFU7N8jyRYtk+cZdgelJ1tFRuWOtLHUeU7qpLPEx6b4naa1/hezavlV2lnujqnyHbHUa7LyJy03v9QJAfSCAAg0k7wNkXXwzS64cepAMHvUdGTO4v3zvLyudxm3ywZ2jpaTkKDllzFBneIpM+2S3O79f4Xr5x/ihMvTkU+ToXt1kyM1vy3Zt3/qSXDu4hww84Ww5+/h+0uvYX8ub25z2hOca4D5X6SNy+oDvyCXnDZEhI0+RYT33kxG3fiC7dDntT5Zb//dHUixfyr1jTpBbPiiVmVcOl36n3SNfJPxKd8sXfzpf+nY/RE74zhly9CEny11fejMkW0fn53/vPlVK9hsgJ54+Ro4s3k+OvGa2rNVJYeuZ7D1Jtf5W1WKZPrqvfPcvpV5DhSy4Y5QMu+ZF2RK23I8/qeH1AkD9IYACDSCq8OnvLc2uYvrTdAUT2s06O/++fuoO+WfxVHn7o//KJyu+kr+cvY/sev92uei+PWXq/IXy8Sdfyss/3SJ3//of8k3CMpzHr/5Qdp37nHw4/xP55Jmxsv5Pf5K3tjnTKjrJaQ8ukIWfvi8ffPScXLT1UXnkjS2B5/rSPJdZzjcfS/nYf8mCBc5ynv6urLz/QSewOsvp2EuOPLyndCg8SK58/iW58Vvd5PTpH8iSOROlt669ty7lH98l425cKxNeXSyf//dDWbjwSRnX1bzkpOu4671b5Ud3tpTJHyyRLxZ8Kks+f0D6/v0yuemFzaHrmfw9SbH+3vpVSYmcdcFA+eRv/5blOr77v/LXv26Uk79/tLQMW+7kT+X8FK+XQqFQgqUuCKBAPavr/5RW8H/0sJKrug47Wfabc4WMufBumft1mbRs1UyWvvairO+4SR6fcK6cc855ctOLW2XHV5/KquDx672GyZnHdJYCp9q+z2AnZq2T9Tt15BDpufmvcuMFp8vxw38gj3y9U7ZtKwt9LqPTUDn9aHc5HXQ5ld/IWl1OiObNW3i1uCUvzpI1x10u5/dpacYLWu0le7Y11aTruHTeK7L1+B/JqQe4yyvc+zj53sjm8sE7S6VLbd+TNNZ//1MvlCM+f1yeW1Il295+TJ5tMVZ+eESrGt/rsNcLAPWJAArUo7qEwnwJl0bRHtK2cr2s3ep7HeVbZP3mFtKhfUspGnCdvPTVbLlmv5dkwqF95Py/l0plRaUUHnCSXHLFj2X8+PHy46t+J4/d/V3p5j08pqC5NPcypBQUxnZia/9xsRx/+Tzp/v3J8vCsp+Tng1ub9urPpYe2HYXOcuyDC5tJs1rtDaukvKxMKiornVqI0HV0fq/O/OW7dyecE1qo0wsLpGUa78n4n94mf777HOmq24ez/s3MhVJOcZah6x/chqr2PEkuHLVOnp75H3llxhuy/4/OlUOaVUpFeYWz3BPl4svHy2WXXZawXOc/XVDicigUCiVQamZ2JmZ/oiX4+MRdrtOQIDju8RYJNEnB/4n8JRP18disK50OlxP6fCWPPfi6bKzUtgr55oUH5cktw2Rk/5aycflS2dJ+gHx38lPy1C+6ywez50v7wwZLs3ffli19j5MTTzxRTjxugOzbeS/pZEOWV4Kv2x0vlxUffipFx10gPzhxkByw81158aOtzgQJea7/yuaky4mPu6VAmjmBbfv2nYF2kf2PHCItX3pUnv26zLRVblkuKza604PLcsedxwwdLm1f/rP8Y4n7mIpvXpYZc5vJsBE9ZFMa78lJxw+Urp33lj3TDsvtZMT/nCDfPHmP3D+vm5x/ZokUOP/2G3y4s9z/yNZDjpeTTjrJt9xCad7ceb07Es4mBYBw7u4tPBMGG719odL9X63+5gdQd/5goiUoOD1VyVoFPWTcPTfJATPGyAFdi6XkwH2l5Pv/kW//720yuqPIumd+KL32PUgGHnqIjLynSH44/mjpcsyNcs9Zn8qlfbrLIYcOlJL9h8jPXt3sLbAmzeTg086STk+cJYf07y99xjwthQft4bRXhT5XO/dBaegqw0/qLHMvHy79T71bPve95a2HTZKHf7xJfjFofzl4YH/p0fsH8uTa1L+TVkN+IQ9O2CI36mMGHCI9DvmJlF72sPxySCtvPXs569nXXc/LRkjno38hd3/HfU/6+t4T+6uPbwvB8XhpOfgHcs7OWfLh4AtldBe3rU3S5e4rw8zrHSb99PWaPx4oFAqlekm2z0ksuhd2S1BB/wEDnXlie6/YTKbNG48vKLEUF/eQuXPmuA8Amgjd9tOVzryp5qnNc2Wlyl2yoXS5rK9oL/vuv4+0tYelpUK2r10hq7cVyV5d95X2RV6zs8fZvWG5LN8g0n7fbrJ3m9gDXBW7ZPvOKilq00qa68mPejuiHZXSwhlv4YxX7lwvpat3SruuXaVtxTYpa76HtG4R8lyhy6lwltPaLCeR8/g1K2R90b6yf8fYisaUb1kly9eVSbsu+8lerZ2/6WtYR1WxdbUsW7NT2nTZXzrH3pRavCe1WP+qXe/Lr4f9UDZOfUvuOsaepKp0uSu85Xb1vdf6ektlQ1EX2S/k9QKA+vbo0fL14q+loMDZ6ThFhwlFZ/LqpuqNWwRQoJZ0209HqvmSTUt32XUV1fOgMZXL9s2bZdnTP5YzHxshM2f/RHoF8nw2YZsEcosG0CVfL3EDphc0E4rO5NVN1Ru3CKBALeh2n46w+ZI9tjbzoma8d9ZSefDsk+XOdSfK5Efuku8Wc2W7xTaCpswGwroigAINTLf12gibP9iWzjyqts+N3MDvtengd4102JCWS0aPGUMABRqKbufpCps32FbbcRXWhvrFe5yb+L0B0bFB0hpzyikEUKCh6HaejuB8tRlPVlfB8aakKb/2+sT7CKAhnHLqqbJ0yVI3YJqgqSHT1gmgQJ3odp5K2HR/W3B6smnp1HNVPryGZPL5taE6ft/IBzYQ1tWpp51GDyjQEHQbTyZsWrDNP+6vV1bGvwcnbJ5kj2ts2bQuqeTKeuYr3n+gaTj9jDMCPaCBojN5dVP1xi0CKODRbTodYfP524LT/eM2fIbNHxwqf70+NdRy61MurGOm8vm1AWgazjjzzDQCqP4XD506n1XQr/8A/6edF0A1YMZ3kjoMK8U9nAA6lwCK/KDbdE3C5vG3JasHg2fYfDUNG1u2rEdNcmU9M5HPry1f8TurPyboIGt85zvfkSVLl0mh/l5s0LThU4vOZOqmEhu3CKCAR7fpmgTn8Y8H67bY8boMk6lpejaIeh1z4T3JVD6/tijxPiJfNGYoP+uss50AutQLoL7gaYvOZOqmQgAFktFtOpXgdP+4reswWT3ZMJ22+tZQyw0T5XNlKtN1jPq15cJ7GSXeD6D26iu0nnPOd2XpMtsD6gueOurGTa/dVAigQDK6Tafinx6s23H/MKzNDmtbr28NscxkMn2uXFjHqOXKemYin18bkA+CwfXcc7/nC6BexDSB0ys6k6mbSmzcIoACHt2mk/FPC9btuH+YrG6HwfawYqelUtP0ZDJ9XJSiXMdceD8Uv7fGlc+vLZ8FgxPqx9ix5yXpAfWKzmQmaS0+bhFAAY9u02Fqum2SsnUdpqqHjScr/vnqW0MsM5kon0vl82vLRC6so8qV9QRynRsI6+68886XZcuXBwKoFzW1rjN5bV6rGbcIoIBDt+cwdlu3bD1ZW7AeNm6L/8r4ZMVOTybVtPoW5XOpTJ8vk8dF+VxRy4V1VLmynrWVr6+rLuorACEz9fX+/8///ECWOwHULM8pbgD1FZ1JJ5m5ved02i0CKODQ7TnIbueWrSdrC9a1pBMyUxV/72sYnScTmT4uE/m8jpnK59eWqVxZz9rK19fVGEzQQZ3V1/s4btw4WbZ8ha8H1BmYxOkPoG67N8WMWwRQNHm6LQfZbdwKq/uH/rqGRtvmbw+W4HzBcX+pb5ksM9P1aIj1TyXK15apqJ8vE6xj/ciFdcwVBND6UV/v4wUXXCjLVyxPDJ3+ojOZSe7z+X8qAiiaPN2W/ez27WfHw4a2nip4pgqXOi3VdC3JpJqWSqaPy0TU65gLry1T+fzaMsE6Ih02AMFVX+/HRRdd7ARQfw+oFo2Y3rjO5LV5rWbcIoCiydNt2bLbtp8dD5svVVHJgmUwdAbnq6ioMI+348mkmlbfMn2uXHhclO+jivL5dNuKUtTvZZTy+bWhceVCSA6u46WXXiYrSkudAKpjzg8TNm0xLV67O3QHbqsigKJJ0+3YsnV/mwq222EwNCr/uJawYBk2Teu2hC0nmVTTUsnkcVE+l8r0cfY9rI2o1zFTUT5f1K8tE6wj0pEL4S5K9fV+/PjHl3sB1FmeU8zABE4vhOpMXrs3RQcxCQE0/j+KfujZ8Xg9WAigyHW6HfuHyl9X/nls3R8ela37i53HBsuwdh36Q6ktwfmT0emZyORxUT6X4rXVj1TbT0OI8rVlKhfWEUhHlOE6+FwTJvxESleWutHSBE1bbM607V5df7oDgwCKJku3Yf/Q8o8H57Ef5jqequh8wRAZHNrgqXWlQ1v882pJJtW0VDJ5nF3P2sr0cVG+tkyfK1NRvrZMRf2eZLqdAKid+gqtP/3pVbJy1SovcOqPxBCqtN2t2wZv6CCAosmy23GQv83W7bxhxU7XD1B/aLR1O/QHzlTTwtqTSTUtlUwep+uUiSjXUeXCa4tS1OvIe1I/cmEdc0V9Ba5sFOVrCz7X1VdPdALoykD4dKpmXOeIt1lmmocAiibJbsNh/O22bgOhso/1l2BwtHV/CbYFx3ft2iUbN26UHTt2mOI/NJ9MqmmpZPK4TB6jr2HLli1SXl5uXmNtZPrackGUv7faatmypbRt21YKCwu9lvyTz9sWclMuhuSnnnpKNm3e7EVK56f5zw79bV7dN1AEUDRJycKQbteWrfu3+bCiywrWdWhLcDysbd26dbJy5Ur599zXZNmKlbLcKRs3bTbPn8j3f2818XVPlOoxiFay31Ey9ndX0+OCv+PaPk8uyoXXmG3r2NDr0xivt36es/72krmwXWaH/P0TF0hCw19t6PzJHmPb7Txa/CHTPx7Wpj2EK1askBdffk1+O+UPMmvOy/LRJ59nED6TIXxml3R/Hzqff15+j4ly5UM++HtsbGxHyB4EUDQpGv7SYefzz2/Do+UPlMrW/SVV8NSyfv16eeOtd+SPDz8h36xd5yzFfmCFlVTCXldNj0HjSPb7tO383lIL29azHb9XIIgAiiZDA2Aq/uk2MIY9Rts0RNq6HQ8LmlpXWrehU4uO79y50xx2f/ofs808mX1A6fLDXhcfdtnPhhJb6lO+/v7DtnXUTr5uG8g1BFA0CTYIpkPDoZ8NlWF1O/TXbfDUoQ2etk2LDaGbNm0y53zGez7rQ0OEGWSHZL/X2vy+8237yLfXAzQdBFDkPRsOU7Hz+OcNPs4fIu0022brwXn8xQZPret827dvNxcc1c8HKB/ETU8mv3PdVhO369wS9npz+fUATRcBFHlNw166ks1rA6SfDZH+up3PX2wo9QdPretQb7W0bLkG0LogeDYt9vdd0+88n0OZ/z0gfAK5KjSAOp+TcaZerQHIehr46kqDYpC22WXboGmLneav61CLDZ7+8U2bt5jlJNO+XWvZq1PbWhd9HAAA2Sr0PqAJQ6eYf6aqQ/1QdevcBxTZym7DyQSnayBUtt3d1qsXnc9ft0XHbcD0B017A/bgNB1+9dVXcu2Nt5nnS+auKb+Rkl4l3lg4ewPjFavWOuthqrJt8zqZeN1NUljYzG1AE5N6+88fufg6s2GdG2odGuO1pf+c/uMGwUf5p9VNNvx+cwOH4JF3NAzWhgbCoOAybOi07Lht02X427T427Ruiw2h2l6Tjh3aSb8+B6Ushxzcy5SRxw6VUce5ZZ+993KWX/11oSmzh61tyQfB15QLrytX1jO/BN9xfgONjwAKZLFmzQplydI1cs9fXpd7n5gnv//razLtyVflvmdelsWLlsuObVvkm9WrTNm+dYs89u8PTUnXRT86X1Ysmh8r/+/mn5v2mU89Fqtng4/ee6XaemrRutLXMe/FmabedOgfMMmKDTn+0lQ01deNZJJtBWwdjYsACmQx/V7dgoJmsnjTVvl6yxZZsn2zLNu1SZaXbZSyMu1FdYr3z2pWVOHVUtMAN3nS9bJfz0GxMmhAP29q9jnrexfE1vOXN99mitabHhsyASB3EUCBLFZR6R5G32evllJQVC6byjfLNzvXyeod35j2gkAOadVpp7TZe7s3ltoFPzyvWoA77ewfeDVkr5r6bZp6v06uhHP639C0EUCBLGY/Sj9dvVwWb1wpG8s3yA7ZIrsLtpr2Ku8zTHtKVduOW6XNHu60VLT38/0Paj5Ubw95Bw9v23YterjeL9m0R+6/J7Tdf3i9Nof9Ux121+WHPVf+0N+3P8DYcX9bU2T/j9GhLYhOU9/+UBsEUCCL2d35DidwtmhdJi1alUnzlrulhVMM5/PVhk/VZ5/u0qtjT28stbXr1nu1cLaHVEvHDu1N4FMaGB/58xOxaZ06dTThMtW0IUccJkcMPjTWbntaNUDe9fs/xtrPPG20aQ/z9F8fiYVKXV4y+nz62uwylV33/EPojMvFsJmPvz+2R6SHAIomx159bq9QT8Y/n6V1/9Xtyj9ui23Tob9uh/ZK+HSZ4OmUFi21+AKos6/3v4JenUpMScfee+3p1cJpkLQWf71UinscEAt+ev6lpfMd1Ktnymlvv/O+GQ/2WOoy9TxUGyw1sCYLi/5zQO3ywujzjTrpuNgyD/vWQBkxbIg3tanTrcUWZA9CG5oeAiiQA9zw6QbPIh0WuQFUA208TFTJ7rIy2bFjpzee3MznZptgVl82bNjo1aqz0/oPPtYEUg2F/sPiNlTa8tCfHvemZG7S5N8lLPOCS3/qTWmqkoVOgg8aQpTbFdtwriKAAtnM2bfu2rVDhuxdIod3OkgOa99bDm3bVwa27mfa3VncHbBmUdO7mkbPqvYg6jmgesjcr6bzJW3Po/9cTT1UP3/BxymnWRoutSdTez6V9qzaw/f15cuvFpnnRbr4AG98YX8cIH1sw7mIAApkMc2SfQ/uLpcdf5JcduwoueTo0XLx0afLRcPPkD4H7y9t2rSVzp33kT332lNaFLUwAbSwML2dsZ6H+c57/40dqtbyfzNneVOT055MDXj2MRr47GH3ZNP08Lxt03M59bxPNeKE0xIOlwcDcSZsb6ddppZU54xC5cMHOCEEyCXxr+KsqoofyDOH9dyhqZtpbr2qMl4v7lHMV3Ei69jtNxk7PThUtq5BLljXonU7bof2fE5bdNy2+b+K09+m9UWLFsn1k6aY50jmqp9cIt86NPmh8sLCQlN0eXZ91YfzP5Ipd90nhc2aey1o2uLbRqJkoS3Z/NkuF9bbrqN97xtjnaN4zux5Xan+NAn+NuquMV53biKAIu/Y7TcZOz04VLauQTFY16J1O26HNljaEgybYW1aTyeAmhvNO4/R/+dqw9zA3gmmBQUc5ICVbBsihEbLrh8BtP6FPycBNDvx6QRkMQ2Q2ovZrFmLWhV9DOETifQj1ha/sA9MPkQbTtjvIEr8bpEd+IQCgCYnnRCK/MPvGdmDAAoAeSXTkKGPsyWX2R5Gf8lmubSuQP0hgAJAk0TYyU78XtA0EEABIK/UJsDQ6wagcRBAAaDJI4QCiBYBFE2SvcVSGL1VUpC9DZP/cVrXef1tdlyH/rod2lsx6dD/OAAAmhICKAAAWSXXe6Rz649r+v8bBwEUAADUk+wJn5zhnN1i34TkPxxo6zo0dR3qPx3qNyF57cXFfBMSso/ZZlOw268VrOshcltXOu4/jK5DLfZwun+a/eajVN+ApEXrX3/9tVx//fXmOQAAaEroAQUAAECkCKAAAACIFAEUAAAAkSKAAgAAIFIEUAAAAESKAAoAAIBIEUABAAAQKQIoAAAAIkUABQAAQKT4JiTkHbPNJmG3XStY90/Xof2Wo2DdfruRrfvb/N+GZNt0qMX/bUj6TUg///nPzXMByQwbNsyrAcgXb7zxhldLTz7uBwigyDtmm03CbrtWsO6frkN/6PTXbbC0dX8bART1ST94avthBSB7ZfL/dD7uB0IOwXsfyM4HqmVq+iPeBAAAAGSEc0ABAAAQKQIoAAAAIkUABQAAQKQIoAAAAIgUARQAAACRIoACAAAgUiH3AdX7HOrAGZqBd19Eb+gv3AcU2chsr0nYbdcK1v3Tdei/96e/bu/vaev+Nu4DivqUzv3/2p79XSk6dLBIpbOdVjjbqB16dVOculQ6/zlDLe68lVL5+XyR1//pLQlAQ+M+oC56QAEgxxUNPEw6Hn2CdBhxonQYfoK0P+p4aT/ULe2GHC97HH6ctNUy+Fi3HHaMtD5Uy7FSVTzQWwoARIcACuSJli1bypFHHilFRUVeS+PS9fjWt75l1ivf9evXT+bMmWOGjaGyvFIqdlc5RYduvbLMrVfqeJk7Xq71Xdrmzburwnls/CgAAESFAAqEsIfaLX9dD6krbfPX7bh/aKfpuL/YQ/P1pX379vL000+bUlJS4rU2rh49esh5550n1157rVm/fKWh86mnnkoYRk1DpAmcGig1dJZV+MKoBk5v6ATRit0VThB1p+t4lRNeG8KsWbOktLS0Wnn88cflww8/lNNPP92bM07bPvnkk9BpQb169ZLPP/88ttyFCxdWe1ynTp3MYUs7j9a1DUiHHvaePHmyPPzww/Lkk0+aevfu3U255pprvLmyy7777ivnnHOOKWPGjGnQDgld9siRI6VDhw5eS7jDDjsstk7+knYA1Y9S+xEc/ygG0Ng03D3xxBMyaNAgufLKK+XTTz/1pjSuL774QubOnWt2Tj/5yU/yMoTa0Pnmm2+a8Y8++qhRQmiF9oA64bPC6/XUXk4bPm0xIVTnMXUnsNppzmMawujRo6Vbt25yzDHHyNq1a2X8+PFmfNKkSd4c1f3jH/+QQw45xAzTsWvXrthydVvTc6ptwNQw+u6775rfh07Xctttt8m5555rpgOp/PrXvzbBc9OmTfK3v/1Npk6dKsuWLTNBVKdpOM02uq8dMGCA+f9H1/P111+vMRxG4f333zfro+ul76ceLdJxekCBHBYMn9oDmk1mz54dSQjVZd94441SUFDgtbh0XNt1en2z4fP555+Phaqrr77ajEcdQqvKq0yQdHs/3d5Qt+6FTx2a3k93uvaC2lBqLk5K4ayzzjI92dluypQpsscee8jRRx9tQqiG0T/84Q9y5513enO4AfePf/yjN5Zarrxu1D/t3dSAqac06faj/09r77kONYhmY/hUrVu3lh07dpiLXZWGvW+++cbUsxEBFMhR2R4+rShCqC7ziiuukFtvvTUWQnWo49pe38/pD59XXXWV1+rS8ahDqDkH1Ov1LDe9nN45nqa4YdMcnveCqQmfsXCaOoAed9xx5kN4woQJXkv9GDp0qDlsrofGbSjUw+r28Hzw8HltDnlqCNUw+uyzz3ottddQrxvZTQ+vay/5hRdeKJs3b/ZaXdqu5eOPP87KK9LXr19v9nU9e/b0WuJ0/6v/X+mhb/+hef/hca0re2j98MMPj81bWFgoI0aMiM2rh/otfU67bP1/OF0EUCBH6WFfvchHP8S///3vm8CTrEyfPt17VMPQ0HXDDTckLYMHD5bt27ebnWBD3HrqlltukT//+c/ywx/+0IRO3VnqUMe1XafXp7vvvjs0fFo2hOp8UdBzQG3gdINlvIfTBk63OO0aQr3eUFNqOAf0+uuvN4fyfvGLX9RbGNML0zTg6QechjytBz+4NABoD449fO7vyQxz3XXXydatW+W1114z4+vWrTMlUw3xuhEu2QV82qbTonTJJZfIgw8+aA63B+k2ePbZZ5tS0/bYGHbv3m32O/Y8UBsSNUBqb+4rr7xiDn3rIfEDDjjATPMfHt9rr71ih+xbtGghGzdulH/961+mR1V7fVetWmXm1aJ1O9+BBx4o//znP2XevHnSu3fvWLitCQEUyFEaslSbNm3MTiNV0Z1EQ9J10Z1OqtK8eXMzb/AweX3QC7006NoQ+tJLL8XCp7bbC8Lqi34AJQuflk7X+aIQuwhJA6Y9z9MZNxcbeYfcTRDVXlLTUxqfRw/fp6KH9C677DLzB4S+l/XRm6znbur5mBs2bDC9lDqu5376ffnll+bDLNUhcw2y+seV9pBqiNXfuS5T6Yeplkw1xOtGOP1/Rc+39IdQrWtbTf+f1TfdDrWHsybaU/rtb3/bG8seenGrBkEN7ho6NYTqoXkt2qupwVR7Mu32bMOq9mDqPFZZWVns8H27du3MtKVLl5pxP51vwYIF5nm1B1bH/ctJhQAK5KghQ4bIBx98IF27djXnup100klJy0UXXeQ9qmHoeVF6Yn6yor21GkK1R0t7JhuCP4QedNBBDRY+VfDQXDLpzldX9nC6OfTu1fWWS+7FRnroPd7jaa+A1xCqh+v18H0q+mGiIVD/0NHfXVSvSXtk7B0dkh2C91+EdPDBB8tXX31l2rUXVHtDzzjjDDOeicZ63U2RBj7t8bYh1IZPbUsnDNanLVu2pPXHhgZQ7S3NVrqv1TtK6P8bSv+gshcn2V5Q7ZywFy3pKVxr1qwx80aFAArkKP1A1Isk5s+fL/fee6+5aCIbjRo1yoRg3SH+/ve/b9APchtC9a/5hgqf2cj0gGrg9MKnPfTu9oI6bd75n/7D7zo0pYYe0N/97ncyfPhwcxrDtGnTvNboaC/kzJkzTW9ourQXVE890dDqD666Xejy0tHYr7up8YfQxgqfSg+9+3tik9F5GmP9Utlnn31MqFR6VEp7N3V/q+FTj4LZw+6W/pFlL1rSXs5ktyjTUK7zBR9fVwRQIIdlewiNMnxaGjr19jtNJXyqqq/my5b/vCRb33lZtr33imx73ykfvCLbnbJj/quy48PXZMeC12TXx/Oc4gw/ccqn86Ts83nSYvUn3lLCvfjiiybERR3C9DntBUh6eF2vcq8NPUdPe0cvv/zy2HL0/GO9pU46Gut1N2U2hDZW+FR6DqX2bKbqBdXez4svvlgeeOABryU76H5W/2jSQ+r6WaCnj+hRAT03VM9n1tMLdJoWveDI9njqvHo9QbL9sx5e/89//mP+CLSPt+eX1kXa3wVvi7ZXekO+Cx7ZKL4tVxfbjj3BerKi/wPaut5E3g5tuw7td7z7i2233wHvHy5ZssRc4FAfdGdpr4jX83yy4V6gurPSnXSU4bOx6AfS22+/bU6LCLt4oS705P+6XHF72z33m+HPf3qpGQJITf/w0PM7NQgH/3/Wfa32rmtQzfRCpEz+n67rfiAb0QMK5AHbE3r77bfXewDKlPY46XlG+R4+lT3fSocAcpsGSw2Yeq6k9oZq+NNAqsFUewL1nPZsvAo+19ADirwT35ari23HnmA9Wcn2HlDkr0x6Pm67+4/SoWMnKSvbba5K1UNwbn23rF2zWv737tu9OQEkYy800vM99Y9o/eNeg2ldeyLpAXURQJF34ttydRoI/fzz2mna5q/bcR1qePQPtd0WbbNFA6a/Tcdt+LTjeksL/ZYeIJV8/OABmjICqKvaIXjnM9Ud+n762RYduhEVAAAASB/ngAIAACBSBFAAAABEigAKAACASBFAAQAAECkCKAAAACJFAAUAAECkCKAAAACIVLUb0ScO9Sbcbj2sFBf3kBfmzjXzA9lCt81k9Obwfv557TRt89ftuA71JvL+obbbYm8yb28072/jRvTIlN6AGkB+yeRG9PmGAIq8o9tmMhoK/fzz2mna5q/bcR1qePQPtd0WGy5twPS3EUABAIjjEDwAAAAilTqAJu9IAnKO9lgmk8407dFUdlyH/qLT/cNgu32MfzoAAE0RPaAAAACIFAEUAAAAkSKAAgAAIFIEUAAAAESKAAoAAIBIEUABAAAQKQIoAAAAIkUABQAAQKRSfxWn3izbq4cVvooT2Ui3zTB2u/Wz4/5pOvTfdN7eOF6/QtOOhxX79Zv2Kze1br920/8VnHZcv4rzN7/5jXkeAACaEnpAAQAAECk3gHo9P07FGwIAAAANgx5QAAAARIoAiibPnvtp+cdtPazN0nHbpud9+h9jzw+1xbb5HwMAQFNDAAUAAECkCKAAAACIFAEUAAAAkSKAAgAAIFIEUAAAAESKAArkk3MelMWLF8fKizf09yZEoP8N8uLiFyXKpwQA5CYCKJAvNHxO6Sn3n1YsxcVaTpM5I2dGF0I/ulVOKD5Bbv3IGwcAIAkCKJAX+ssNl58oL1znD4Afya1X3i9y6VVyjtcCAEA2IIAC+aD/aTKy+AV5/klv3PpopsxZ3FMOMp2g58iDi1+UBx98URYvftANpeawuT1cf4OZbjtMz3kwfih/8YM2wrrLuOGG+KH+eA+rN80Z7X+DPkfI433PF1uHEMcMHyozZsxIWnQ6ACB3hQdQ+00uvp8uvrkFyFqLF8pnXjVRsZT08apOvefCK6W4+GJ5UgPjzEtl0XXuIfsrZaSc6M2lnrzYHsq/Tl448XLfuZ3FcmnJ8+60616Q4pAe1o9uPSH+WOffdRdrMtbnGylz7CkC14lcnuT0gFdff0ue+POD3lgibdfpAIDcRQ8okC+KSySWMxMsloWxZLpY5sz0jtH3P0h6Lr5f7vZ6TT+69Q9OVPSJXdA0JSGY6jLutw968nnnMbaHtbpzHpwiTvp0wq5Dn0/D60yvB3TKic4qh6+xevZfc6uFUB3XdgBAbiOAIq8k+371dNv94/qd7ZZtt23+73O3xU6zdVv80+14RUWFqdcbc6j9RPl2sCvSHJpfJF/W9sIgPVSu2dH0Yp4m9y/22mvDCbBT5DoxnZ8xL3jL9ErixGr8IZTwCQD5gwAK5IWP5NY/vCAnTvGfV+keYpf773Z7IIM++lIWFV8qV8VOz7w83tPZp0SK7SF9E2JNay04z206P33PrM/nPEOyw+7JaOj8w+/vJnwCQB4hgAL54smLzXmVU2IX+ZguTDkh6X2RnpSLr9PQ6s5/r8yJH4J/8m65Xy6Vmbqce0tkUS17QPXQ+4nOv9i6vHiD9NfnO02vyp/prZ9TYhc3pcY5nwCQXwr69R+gxwdjFxw5VT2GaMb1UKFtcw8j6uFDW6+S4uIe8sJceiWQPdxttjrbHpzuPwxut2tb7DSt6yHzsKHOYw+nl5eXx4bapiWsrkMty5Ytk1tuucU8R1bQw+4zS+QP5gIlAAAaDj2gAIxzrro0ftgdAIAGRAAFmqz+csOL3qFwp0w58QW57oRbhS8yAgA0NAIo0GR9JLee4LsinUPvAICIEEABAAAQKQIoAAAAImUCqL0uuCrsAmLT5p8Qm9sbAgAAAOmjBxQAAACRIoACAAAgUgRQ5A29MXxtBOf3j/vr/hvSB4e22Hl06G/3Tw8WAACaKgIoAAAAImW+ilN7aJQdOhVziZEZN3XtxdGq7d1x63rvQL6KE9kitv2GqLaNO9xtOT5ueyW1Tet2mn59pm0LK/arNrXu/+pNLcGv3/TXV6xYITf98kbzHAAANCUEUOSN2PYboto27nC35fi4BkilbVq30zQ02rawYsOm1m3ItCUYOv11DaA33HCDeY6ioiIzBABkTvfDdaX753bt2knbtm1l27ZtsmvXLm8K6hOH4AEAABApAigAAAAiRQAFAABApAigAAAAiBQBFAAAAJEqFN9VwFb1FmVbC7whAAAAUHv0gAIAACBSBf369Y/1gdr7HiYMneLeB9QWt537gCLb2O02jJ3mn8fdjuPj9v5x2qZ1O03v3Wnbwoq956fW7b0+bQne+9Nfz7b7gF73gzvk5CHflUrvLbFvjfs+6ZEP9/9/PRhip835z9/l7r9e544AQCPT/XBd6f6Z+4A2PHpAkff8ITMd/vlt3Q1hiYE12GYDqdI2rdvpYXU7b7Y4sts5UvphpVMqZMV/nYCs5QMtzrgzXP6+lgpZ5gyXvlcmS98tk0P3+o73aAAA0kcABWBsW1spFeVOMNZSoT2/VbFSXu5O03qlKTpdZMs32RWiAQC5gQAKwNBw+f+9eZ/8fvYkL2g6bV4YtYGzwgmi5U7b0x9Ol4dev9lMT2bso6Uyb9Igb8wz9lEpfXSsyKBJMq90ngQnu8bKo0mnAWiqOnTqJBN+dqOc+4MLpWWrVl4rchUBFIChoXPT1nWycevaWG+nFg2ctq5nDei0zdvWyYat35i2ZGbMmiM9S/p6Y66xo0fKnFkzROZPlhHdRsjk+d4EAKjBMSeeLB077Sm9D+knP7z0CkJojiOAAjA0WF44/Ea59tvT3MDpjI+8sY10H1zohs8KPTnfDaJjD71Brjj6XtOW1KcLZdHI0TLWG9WezdEj54jmTwCoDe39HDT4CG9MpEvXbjkfQgdNmielpaXVSrUjR3WkR6NKSx/17YuzAwEUgGFCpwmaOnQDaVH7Chl4bqEcMa6ZtGzvhlJ7aN4UZ96k5j8rsxeNlNF2rzd2tIycM0vc/Bk4zG4Oydudb2+v0eOblrATTWgvFT2y7xokk+aFtQPINRowjz3pZLnkymu8ljgNoef+4AJvLEfNmSjdunXzlYmycPysxH1dHc0Yp8sd5+17swcBFIChgfKZBX+Uh9/8tRdCq6S8rEzKnLJ3nwo57ueVctBJbvu/Fz0gf13w/1IHUJkvz85eJCW93ZQZO/xejRNGZ42XhRPdHfAVMkpGelPcaaNk9mhv5zxRZIJJrYmP6TZ6upRM9QLt2IkyfmF8pz6OHlcgJx05/Gi57le/laNPHCWtWrX2WhO1at3Gq0VPb9OUjnTnc82Qcd1Gy3Tnj/epef7XMwEUgKFhcsv2dbJx21pzqF17OsvK3QCqZcvG7bJq42JnPpHN29eb+TS0pjL/2dkio86QQc6/3iWLZOGn3gS/Qb2lZNF0meoFxfmTp8kct+pOk54yfpbXozl1pHteqWn3Hc6fP1mmzekp5pRTc+h/ar0fxgIQrS8++Vg2bVjvjSXatXOHvDL33/LY/fd5LdH7/ve/b0oqOv3MM8/0xtI1XyZPc/aCCacw6UEf/yH7+BEkc4g9EFbNvPMmOXted3pwfxg8/O9/eLLnMfRC0mTT/AJHqOy6uNyjVDUGUPPxkvAZoyOpP3QA5B4NnN8dcL2MH3a3CaNaNHjqTZk//2+p3H3VbHnnmQ0mdJ7a81oZN2iqCaMp6WF4GSVnjD3D+Tlbns3ooqM5MtHrzTSlpi5Nc4GT9qTeZ3Z8HIIHctNGJ3w+9sD/mrDpN/+9d+T3v/t/8toLs2Xnzp1ea/Tuv/9+6dKlS9IQqu2dO3eWv/zlL15LLegf0s6f2d4BJBMKZ42aLaPtfnDiQucPc/cwvV7wKSW9EwLeGaN6ypxpk50oW51Z1viF8f3q6Omy0D8tyfOYUDm1RKbHjkjNNo8JM+iMkviRK+3RlfEyK7AzpgcUgGEuMPKK3gtUx7ds2iFPTH1Dnpj8kRzY/ATp3mGQM927J6gpNd0HVA/Di4yfOl5k9rOhO0OZ/4Us7DleJnr7pkGTJsQPwes0Z8w97O7jtcfOL3V2jBMCFzjNnzxCRk+PnwIAIPcMHHyEtGzVOiGEfvj+O40aPP2mTp0aGkJt+Lzrrru8lloy+zhrrEx0dqHTr/AFyhlTzWF6sw+cMUvm9HT+0Le7ukHOH/w9k13wqctywulE3zmhzh/tk81IDc9jLJQv7MQZzuNCd+q6yHG+aV6PbkJIJoAC8Oh5n3OXPCR///i3pvdTx3/zPzNl44fdpN++J0uLwramx1PL62sfkX9+fWvNPaAOPQy/yPk3O2n35wwZN3GOjJzqHqq5T2bHD8HrNOevc+dP8PihHPNXtNte4j2m1Jwn6u1QfYeI9K/8adzrCchJx5x0shxz4ih5de6/5YF7p8YOxy9ZFI9m2SAYQuscPpU5zcijF3D6T0UyZZY4OdIzQ2bN6SmjvAQ66IxR0jN2wWeAWVaScFrT83gXlk512tM5spRwKH9q/Mx+iwAKwCh3AucmPQfU3AfUvSjpyAPGyj5tSuI9ns48WjZt8+Zz6jUKveennmjva5sxzjtU001GTJ6cOM07pG6nxw7BJ7SHLysbr/wEULMDe5bEwuerL8yOHY6f+WR2/h9tQ+htt91W9/Cp+pZIz0X+05YCpyJ5xe4OzX2XvfPtzeH38O7PNKR6nvkyeYQzHvvjP9mV+nqXk9LAofx4t4JFAAVg6Dmgpxx4rfxgwJ1SUalB07vdkgmdld7QKU7b8ftcLd/tNUWqnPkAoL6tKl3hBM4/mPBpaQjV8z+zlYbQF154oe7hUwPc1JHxczgD54OGsofh9Xz7pIffHamWlc7zKPPHv3ulfrXTo5R3kejEEfFD+YN6x/pzYwigyAtVVbULQsH57bi/Xeu22HFVqV8H5PFP80/XYtts3d9uh9kkHja9up7r6Yz7v/tdh+56FzhD93EAUN927dyZdYfa0zFnTvWevloxV49PlZFzJsZvIecEPr3LR+xiIGOQTHrUf2W5dxh+wiiR6VOTH/kJW5bznJN0pKbnGftotUPvC2MnhAb5gqyz/Pvi5wvEEEABGB+s+j8vfHoXGXmB0ww1c8cCZ4FTqqTAGXy07h9uEwCg9kZOjZ8nqWVWiUzTQ9aBu33ozeQnznHPv3TnnSWjFiZe2GkOwzs5L/n59q5qy5rlhFbvFnkpn+fThfHz7rV99ujw+yw7QfYKc+q+N+99IleEHIIv6Nevf6wjw/bI+IemrkP9543bUlxcLC/MnWvmBRqT2U6T8E+z9bBhsAR7KyucJGaHSodadLoO9XZFti1Yt8U/vmLFCvnlL39pllVUVGSGAIDM6f64rnT/3K5dO3MD+W3btsmuXbu8KahP9IACAAAgUgRQAAAARIoACgAAgEgRQAEAABApXwBNfhGH4Z9cw6wAAABAMvSAAgAAIFIEUAAAAESKAAoAAIBIEUABAAAQKQIo8pp+c1FNdB47X7pD/bYN/zcl+b99Q9v8xc7nr9shAABNEQEUAAAAkSKAAgAAIFIEUAAAAESqoF+//t6ZaHqOmqnEzk2z563pBFM38zil0q0XFxfLC3PnmnmBxmS32aBgux33D21R9lzO4LmaOgyWioqK2NBfLy8vN8W2l5WVVWvXttLSUrnpppvM8xUVFZkhACBzuh+uK91Pt2vXTtq2bSvbtm2TXbt2eVPqR/tp/3U+V7zPH81T3sdUpdadsuu6w6Xo9nedevwzyolc7nSdV3/8aqj7oBxGDygAAEBEND/asGmypTP0j6vKCq277Vq34dM/T3YYK4+WzpNJg7zRWihM/jriU2I1rWTVCwcAAMgdFRWVsdBpizvuBlNl2jWE6jSnSXtD3VDqDvMBPaAAAAARMWHSBkobPCu0XdOlnUfDZjycamg1p3+ZIQEUAAAAteAGTdubGQ+bZuiFS9vT6YZVd149Am3OC/XmyXqDJsm80lJzvYOWR8d67cYgAigAAEBUNFBWmLCpYdI7HG96Nt3D88q0mXniRQOptul82W+sPDprvCyc2E26dXPK6OlSMtWeKzpIJs2bRQAFAACISjxQOqFTezW1t9Pr2bTh0h13w6oJntobanpA3cdmvUG9pUTmyKwZ3vj8yTJtTk8p6evUB50ho3rOIYACAABExe3FdMNmlQmX8YuSzC2XHFVemykmpNr53Mfng4JD+vX3Xon7Ik3NVOIv2ox7w1hx/nEfUGQLs42GCLbb7dey94yz7cGi03Wo9+60dR3acR3aur3Hpx1qm97v097/0z9dy8qVK7kPKADUI93v1pXunxvyPqD5RW/DNEEWjh4hk+d7TYa2TxWZ2E3GaS+ong86q0SmdRsnM7xD8ARQ5AWzjYYIttvt17I7K9seLDpdhzZQ2jY7rkNb9wdM20YABYDo6H63rnT/3JABtGDy295niTOinzU6iPV0Op8HtwyTnde/bubRiTo0Va+HVOvt7znWLKvxuUFzpDemFk0fLSM0jZrQOV56uq0yPSGkjiWAIj+YbTREsN1uv5bdWdn2YNHpOrSB0rbZcR3auj9g2rb6CqAHHnigVwOApmvJkiVeLZzud+tK988NGUArb37L+aGfMfazx/usMkORlrcNlx3XzXMDpz7AadSXZefVHx1+f5xOyWkEUOQFs42GCLbb7deyOyvbHiw6XYc2UNo2O65DW/cHTNtGDygAREf3u3Wl++eGDKAVk940nyVSVeCsr81X3ueQs/qtp4yQbde8ZgKoivWOar3Cbet4HwGUAIqsYLbREMF2u/1admdl24NFp+vQBkrbZsd1aOv+gGnbCKAAEB3d79aV7p8bMoCW//IN57PE+dyJ9YI6jc4PHWogbXvn0bL16ldj86j4vO7wrn1eMe2Z0GVs3LhB/v63v8rq1au91uhlHkCdUtyTAIrsYLbREMF2u+1admdl24NFp+vQBkrbZsd1aOv+gGnbCKAAEB3d79aV7p8bMoDu/oUTQE2g1Gylnz/eZ5Cz6s5PKfnLd+WrsX93Xov7WRWbpkPvMV9e1MFMy1Sl81m0ePFiufrqK2VNI4VQbsMEAAAQERM+TdEgqJ0aTjHDSnOI/c6p97h1J2ya+39q+PQ/xhnWVWGzZtKjuFim3nWPdO7cxWuNFj2gyAtmGw0RbLfbrmX/WrbtwWJ3ArZH07bZcR3aur+H07bRAwoA0dH9bl3p/rkhe0B3/Gye86HjBUn9Tz9vNFzqROfHh2NbSf+/7PDatckb6rjO5PxYdFknnbvO9LV+/NECmXj1T81rrY3HHnvMq2WGAIq8YLbREMF2u+1admdl24NFp+vQBkrbZsd1aOv+gGnbCKAAEB3d79aV7p8bMoBu1wuMnI8hd10L3M8br1dTg+Zn49pJ70c2m3n0h5lN53HG3c8mka9/XD8BVJWXl8lHCxbINROvqlUI1QB6+fIDvLHaI4AiL5htNESw3W67lt1Z2fZg0ek6tIHSttlxHdq6P2DaNgIoAERH97t1pfvnhgygQfo8U+6cKgMGDJIWLVp4rdHSz6qPFnwo115zddohtK4BlHNAAQAAGoGGz9un3CkD+g9stPCp9Ln79x8gU+6YatYpCgRQAACAiGnQ+93td8iAgU74LGq88Gm1KCqS/gMGyO+m3BFJCCWAIufpYfH6ZJcXHKqa6v6hHgrSob9omxZ7iB4A0DTd9rspTvjUw+56ClaB29jIiopamlMBbrt9itfScDgHFDnPbJ9JBKfZbdeyIdC2a7FtOrTj/qJtGiBtiLR1Lf7zPO0wrOj5NqtWrZJf/epX5rk4BxQA6k73yXWl++iGPgd0yJAhZtn6eaIKCtyLkezQ3+av69Cy05IJm9e/nLDHa7u+h/r627RpIy+99JI3pTrOAQUAAMgh/fr1k7Vr18q6devM8JtvvjFD22bb7bidHhz657PFPl7nCS7X/3j7WDu/fz79zv2uXbt6a9swCKAAAAARa968eWhp1qxZrOjFQWHz2KLz6FDns/PaNv88Os0/r3++4Py2rWXLlt6aNgwCKAAAQIQ03GnIC4a/sPGa5glrSzWe7PH+kKolsgBa7VSA1KcWuNKZBwAAADG2x1LP/7fDqn2rZM3Va6T08lKp3LcyYXo6RUNjsC3Z44PtOh58vLY1pNhFSP6TUU3dKdqi9dh4oBQXF8sLL3AREhqX2T6TCE6z265lT1i37Vpsmw7tuL9om73oSMdt3V50FByGleBFSB07djSlsJCDEgBQW7ov3rhxo2zdutVryZzuoxv6IqRrr71WnnvuuYQLhdZcuEaOOf8Yea/sPVnx/62Q3n/p7U2pTj+HlP+iImXb/YLzWLbNvyxL28aMGSN33nmn11JdvX0Tkn+lTd0p2qL12HigEECRDcz2mURwmt12Ld1pKduuxbbZsKlDf9E2Gzh13NZt4AwOw0owgPbo0UMOPvhgadWqlRkHAKRv586d8vnnn8vy5cu9lszpPrqhA+j1118vzz//vDfmWnPZGjl51Mny6vJXZeXrK6X33+IBVD93ggGyodjn0gB66623eq3V1dt3wesTWqbuFG3Remw8UAigyAZm+0wiOM1uu5YGSGXbtdg2GzZ16C/aZgOnjtu6DZzBYVgJBtCePXvKgAEDTB0AUHsLFiyQpUuXemOZ0310QwdQ/RrmWbNmeWOuXXvuksUnLJaKggrp9UIvabk+/BxMf69lKunOl8zo0aPlN7/5jTdW/zjeBwAAECF70Y+eZ2lLu63tZMCzA+Rbz35L9tiyR2y6/5xMO27r/rbg/HpOpx0PzpPsMf75dR0bEgEUAAAgQhru/MHPXgDkD4B2mr+erOg8wcfq0IZQfxgNPib43LYQQAEAAPKI7QG1JRj+gm3B6WHz+4veQkmHdr7g0F+0zd9u6w19USwBFAAAIEJ6fqZeR2PDny0aHINtYcUfHMNKTdOTFfs4XTetp6PPFTPk9ddf98rtcorXLqfcHmufcUUfr9HhtXMREnKe2T5DhLXbbTdY14uJ7NC2a/FfdGTr9sIjO7QXG9lxrduhXmykdf/QTl+5cqXcfPPN5nm5CAkA6iaXLkI6++yzZeTIkbHPlVTs1e+p5gu74EjHtRezpuVbdhn2MXPnzpWnn37am5rcKbe/Lse+Mlx+9pzXYJwit7/+A1ly0Vi57zNfXa6QGQ8dKI8N/xkBFLnPbJ8hwtrtthus607ADm27FjuugdHWdWjHdaiFAAoAjSuXAmg+OeX2GdLjYQ2aXoPq4wRN5+Pt5rH3iTbbkPpwjxlys/NvrDMzh+AByKLefeStYcfKW0OPkTeOOFpeHzxCXjt0uLw6YJi80u8oebnvUHmp9xB5qdcQeaH4SJlzwBEyZ//D5d9dD5MF7Q/0lgIAaFr6SI8Dusv5DwUOtX/2grwmR8uJZvQUOXb46/JKQg+p7xxQr4c3qfA+JgD5YM2enaXj0SdIhxEnSofhJ0j7o46X9kPd0m7I8bLH4cdJWy2Dj3XLYcdI60O1HCvLWuzpLQUA0LR8JveNHS7Dh2u5RZaef7O4GdRpv9mJoCaY/kLklp+J5s/Pvl4q3c+/0JwnSg8oAKksr5SK3VVO0aFbryxz65U6XuaOl2t9l7Z58+6qcB4b/ufp0AkPyUMPVS+/PessmfDQb+Ws7t6Mft3Pkt8mm1bNUGc5/mWHPa67nPVb3zy/PctpAQDUv+fklde7y9Ha7WkPwZtgOlxeOfZ1uV1T53M/k4seP0B+8frrBFAg19gT0oOStadDQ6QJnBooNXSWVfjCqBdCTbsGzwoniLrTdbzKCa9h3pp2kVx0kZYH5ANZJc/d7I7f+HSpN0eIZU/LjRfdKE8v88ZrFF/uzc6f16eM9wVME2Zvlm4z7Xo4ZbrIEUO96QCAerf068+kz4lHi7z2gjn/Uz33yusy/Fj3+vjP7htrQikBFMgh+j+tXj0ZvD+bjmv7sGHDvJbaqdAeUCd8Vni9ntrLacOnLSaE6jym7gRWO815TDZY9vRM+WDfwXKESaDd5azxp8jKBy6SaW+ZyS4n4D7tHwcA1I8+V8gPhi+TJQu9Q+1Hnyj25kunHDtclukEHwIokCM0ZHbt2tVcMX/WWWfFQqgOdVzbu3XrVi2cpqOqvMoESbf30+0Ndete+NSh6f10p2svqA2lVRUZniG+n/ZQuofGfxs7dq6H1e2h9MTD5xNq03PZ/QgZvO8H8i5hEwAakN5iybsH6EPny9JbvKvh9VD7a0fLQ960X8gt5sp3//wEUCBH6G2ennnmGVm0aFEshOoNg2341Ha9Z5vOV1vmHFCv17Pc9HJ653ia4oZNc3jeC6YmfMbCaSYBdF855TSR6XpY/IEPZN9TznCiZ8DQM+SUlQ/EDp8n9GSG6H7WafKtVe/JO/bw/apSWeFVAQAN4Tn5mXeepxb/vUDtoXZTYhPi8xNAgRyi9w/VkGlD6Pjx4+scPpWeA2oDpxss4z2cNnC6xWnXEOr1hpqS5BzQ1FbJc9OfFpMV33pXPpCu0i14ddCKUln1rUt8vaNhnCB7s9tDevMpK+WBG71lqn27yX5eFQCQXQigQI7RkGlDaKtWreocPlXsIiQNmPY8T2fcXGzkHXI3QVR7SU1PaXwePXzfIMwFSRfJdBmf4hB8/CKkiy6aJrFO0mXvyHurviWHc8ERAGQlAiiQg2wInTdvnjksX5fwqezhdHPo3avrLZfci4300Hu8x9NeAa8hVA/X6+H7hrTs6Rvl5udWSddqXaSpLJOnZ34g37okEFy7nyVnEUoBoNERQNGk6FdppsvO639MsG6L5W+z7XZoQ6KO1zUwKl3GG2+8YQ7L15XpAdXA6YVPe+jd7QV12rzzP/2H33VoSkP1gA6dELsASQ+vz0z/3kyut6bJRTc/J12dEGqX89B4kXe4MAkAGl3su+Cdj0Xng9GracUpOmo/SGNtvsJ3wSMbmG0zRFi7P/jZ7VjZdh3adlvXob9om4a+YNFp+h3C/u+C95fg98GvXr06a74Lfn7bA2RpQUepct6Gqkrn9Vfo63beG29Y5WRc026nVTjvg75lznhx0RYZ1m6NuyAAaCR8F3xuIYAi55ltM0RYu4ZEy27HyrbbgKnF1nXoL9rmD5626DQbNnXc1m3J5gCayrHf/o4ZvvL8M2YIANmIAJpbkh+CN1+qEv8AD/2Olcy/eAUAAABNFOeAAqjm22eeJ6d/7wIZfdb3pUWLFqbX96gTxsjhR58kfQ890psLAIDMEEABVPP8/z0h//jrIzLr6b/I3Jl/k1f//X/y5ov/kndfmyuf/vc/3lwAAGSGAAoAAIBIEUABAAAQKQIoAAAAIkUABQAAQKQIoAAAAIgUARTIAnoT+507d3pjAIDa0P2n7keRO5J/E5IZd9vMuKknluKexfLCXL4JCY3LbJ8hwtr9Oyj/tuwvdh4d2nH9BiNbt+M61G/MSPUtSPabj4JDnbZq1SqZPHmyea6OHTuaUljI34QAUFu6D964caNs3brVa8mc7p/5JqR0jZVHS6fKyDkTpdu4GV6b0vYJsnD0CJk832sKIIAi55ntM0RYu+6kLP+27C92Hh3acQ2Otm7HdWhDpq3bcX89nQBaVFRkhgCAzOm+uK50/0wATZcbNEsW9ZSF07pJPIPWHECTd7eYz26+axMAAADJzZ42XUomTJJB3ng6ON4HAACAzH06WaYtHC/3TUoSQQdNknmlpVJqyqMy1mkigAIAAKBOZoybKAvH3yfVM+hYeXTWKJk9upt06+aUiSITnJkIoAAAAKijGTJu4kIZP1H7N30G9ZYS6SnjZ3k9oFNHSs+SvgRQAAAA1IMZU2V6yVR5NJBBRebIRO39tGXcDAIoAAAA6sN8mXzFdCmZOlVGei0y/wtZ6IzpYXe/WACtCr+TTXX2wngukAcAAIDf/MlyxfRF3oiaIeNGTxcZP8u7CMkpj46N3wdU73FoOEOvQe8E6gZTrdti2txSXMx9QNH4YttuQFi7/x5xdjsOFjuPDu243r/T1u24Du29Pm3djvvr+XAf0Ha//69UlDuvvaJKdl47WJrf8o7zWpz3R9+qXw1xZwKARqb74rrS/TP3AW14NRyCd7s5zcd4rMcz3gWqH6bffPONNw4gX5XvdkJ1mRO8y9xQ79ad0O20AwBQWzX0gHrtsbr2CLltWrp06Sx33nGHDBs2TB8BNIrYthsQ1u7/69hux8Fi59GhHdc/tmzdjuvQ9nLauh331/OhB7TFbe+Y3s9KJ29WTTpSyn/5hqlrW6vbh3tzAUDj0n1xXen+ubF7QLt06SI/uuAiadGihRQU1O85j/pZtnHjBvn73/4qq1ev9lqjlzyAOj+1yW2P1/2lU6eOcuVPrpRx435oHgE0BncbrS6s3e6c7DS7LfuLzhOs25DpH9diQ6a2+0Onv24Dp9Z3794dq+v/+A0ZQHWnpeuavWr+qra6S/Yc2u47Sd6xaPpoGWFn0psmm/vWJVu39Nd90KR5Mqtkmu97kgfJpHmzZHxPb3TRdBk9YrL4FzP20VKZsNC3PgDSovviutJ9dGMGUA2fU++615zmWNismddavyqdz6DFixfL1VdfKWsaKYSmeRV8PH1rzRb90v/Hn3hcVqxYoZMAZIm+ffvKUUcdJYWF9XOji8pJb0n5jW/Irp+/bsa3TXxNtlz1qmz6yctmPDctkun2xsjd9AbKs8yJ8cb8yTKiWz0EYyfI3jdqtoy24dN8G8gsKZnmux3JFSJnBG5ZMmPcaJk9KuyGzgDymYbPO6feIz0aMHwqXbY+x9S77pHOnbt4rdGq3gPqsHUd+uvOD7fNN61D+/YyZsxo+e1vf2vmA6Jmt9GgsHb717GdZrdjf7G9nP667eX0j2uxvZnarnU77q9H3QOqPZ8aPjt37ixr1qyRt956y6xfXey+QQ+5uxch/Xj9I/L7duNMXS9E+vLCDt5cLn1//jj9D/KnRx72WpJp7B7QQLvp9SyRad3Gie2rTC69ddfez/vkCq8n0+351PAZ6wxNZeyjUjp6lq/nFEBN6rqvU7qPbowe0H333Vem3HmXFBf3lObNm3utDUtf68cfLZCJV//UvNbaeOyxx7xaZmrsHql25oGvQaubNm+Sl156WW688UZZTk8o0Og0AGro1PCpIXTo0KF17gnVi47MhUfllXLZZT+Oj3sXJflpAL7Umefkk7/ttWQg4XuDSwM3NdYgV32aHra2bbGezNqY/6zMXjRSRpuHasCc5/VAhj9fnM4b9pyD5IxRIrOf9RLqoDNkVM85MitZntTAOW+S8yjPpwtlUUnv+DiAvKVh91c3TzaH3aMKn0qfq1///nLn1LvNOtTG5csPSKsccsghoaXmTyUvcJpzYE29wAy8qvmxavVqee5f/5KLLrxIHn30UXnjjTe4Oh5oRNoLUJ8htM0dI+Q7H/9WPhzb2izniwvay1cXd5BFl3X05kik80xydqYjR53stdSGE+hmjZeFE71D1KP1psb+MDhLRs0eHTuEbTsIZ4zz5u82UeaMnFB/h6/HTpTxCydWez6Xrs9UEV3Xaj2VfaWk50L5wt9DumihfOpVa6Q3b+5Z4iwFQD7T4DflzqnSf8BAJxC28Fqjo8/Zr/8AuePOu2odQusi5SF4pxI73O6OuoclE9pNXdtFWjhJeo899jCHE1u2bCmFzbwPPPfh9c5dixyRQ6uaYytbK7Ft2yfY5h+39eCw0hlq3d8eG/fVdWqVd9g+WD+ge3d599139eENdhW8XkE5atQoM/z000/l888/96bU3vnnf19eeulF08O5e8/dUrTeXWd9PfaCJx36DRkyRJ555hlvLCjJYeyQQ+Hauzl6lhP+Pk1xmFx7EKfay4r0/E5dbrJD5WHtGibvE7ki8DjR5xwvzgJ9FwW500sW9RRxwnD4xUI6z2iZZde1Vof4lX99vCYAKeXaIXh9jtun3CkDBw6SFo18N5Sy3btlwYIP5bprJ6Z1OL7dra94tdReHrWHV0uUOoA6H5NateNm6BQdC6+789t2/7AhZL7UOqxPhg+t2zvQMO9fUhE/XWPQbdbbOlOy236M3aY9CdN902Ltti1kWp+DD5YvvvjC1BsigGovpPZ81te5oJdeeqk5urFrz13S8pGWUv79cmm+tXksfFr+cb1F2/3332/q1SUJh5kE0ITHJAmSCSEupD1hGdWnm6vZx/eUORO1F1SnT3UC6CLpudB/hbufzuMLoF7vbdrngFZ7PICa5FIA1eX/7vY7ZOCgQd5nQOIf8I1h9+5d8uGH8+X6666tMYTWNYDGjsn5Oy7iVbdmx83QmzG8XmA+fLTujrpDbUtWzIMzLObhmZQ6/AtfYM0lpCn9EvU/50kzLc6PDEv477ghS9j6JxSdLdDm/KjWZovzw637Hmfb7NBMM/+U+7Mh1Hf4VJ06dZJ99tlH9m+2v7S7rp10bd3VLH/vvfc2Qy063RYd18fUmve9we65mA4nGE4Y6Z076Z2nGfxOYelbIj3t4W1zrqVprQUn7JnD/snD3vzJI2T09EVS0ts+9yKZ7YTciTJV5oUe7/9UFi4qkdjs+h3J0+bIyKmB80id1zdJx4PngA7q7QTcWhyyB5BTbvvdFBmgPZ8tsiN8qqKiljJgwCC57fYpXkvDifWAilRpJ41X9fXyeHXbo2GGSdt0aP7zxn3DpFJPTSnDh9bhGR2N8qSRapT3J2J2202l2jz+bdlUnHFfg63HH2fbgtPc8T59Do4dEs/2q+CVXrHfvn173+tznyvZe6nTtmzZIjfddJPXEuT2Iobei9P0Ro4XN0faw+lmxJH4OLdH0u1dNPfWXDRH5kiJLKyxB9T/3GHP4T2ur//Q/hyZWK2H1HtuqX4/z8Sr4D0Jr81h7wOqAXTCwvgyuAoeqLVc6QHV05N02Xb/afel/n1qWF2Hlp2WTNi8/uWEPV7b9T3U19+mTRt56aWXvCnV1dsheP+HpFbiq+W1x9rccbviCUMzjx03P2PDpFJMqknmD22UJ81Yo7zOTDXCU2Yi7H+8RHbbjQs+xj8er8cfZ9uC0+z4wQdrAP3M1Ov7ELzeB1R7H+srfCJDGjbN2QCJwbRmnP8JZCJXAuiFF14o//rXv0zd/1niD41KpwXDon88LEjaZQTnSbYc//z+thNOOEEef/xxMy1MvR2Cd1bFGzq8lUngn6zFG7fNZtz5ETvIaCbo0G1L9s/MmGEJaUqz6GMzK86PyEtIU5ql+vqnVeryL2x5DVycHxkWs4mGFxXWXlNRYe1aIqQXHL355puEz8Y2f7JcMXuUzKrlbaHGPjpLxi+cRvgE8pjeAimsNGvWLFb0AtKweWzReXSo89l5bZt/Hp3mn9c/X3B+26YXkzekpPdl8X9eunXnw94buhX98NdBvN0/rj/tZ7xbCS8hTemXDP/pIzMtYQEoa0uG/5wH51QJaUqz6GPDi/OjWltCSfjnzJ60Fh+amlNxl6FD09hg/H/povHouaO1PYxubinFoXcgb2m405AXDH9h4zXNE9aWajzZ4/0hVUujBdA4/aSMV12+D1QzSPyAtZ+uplWH7iC0OD8zL2ELTKNUCxO1KqGLrLmEv4I0S2b/wlek5hLS1PAl9HWnW2rzL53HhE1PbNP/YitvxpO0hQ6dgfsDANAE2R5LPf3KDqv2rZI1V6+R0stLpXLfyoTp6RQNjcG2ZI8Ptut48PHa1pCSB1DzYRnnjpmPXpetOPOZqh3qPPaxXpv+TPpP58m4mKeofTHrlFkJb02jhK5IuiV8kTWVkKY0S+b/wpaWVgl93Q1Q0nm+kOlVwTZn3G6D+sPUbZvT5LYFhqbd/Of9AAA0Rf4AaOvbv7tdRp87WrqN7SYrT18Za9dhsAQfG2y3RUNlcB7/fLZu5wtOb0gF/fr1TzhQl3DYzqm7Y85P979qdTt77HGxxzj8j08mxaSG0ghP6ajDs2b40MZ5nZmK5v1J57B02DzBtvh49f8Hqk9zh4nTq6R374Pls8/cm+zo//AAgLrJlYuQrr/+enn++ee9Mdeay9bIyaNOlleXvyorX18pvf/W25vifm5oB0cU7HONGTNGbr31Vq+1urp+F3y1AKofjP6G6h+mKqye2Ob9F6snk2JSw4mvaGQa5XVm+qyNs7IZq83qxrfn5MLmCbbFxp2hnWLbEqc5dfOf/f/DGzo/eh/cWz77lAAKAPUlVwKo3p5u1qxZ3phLv+Rj8QmLpaKgQnq90Etarg8/B1PDYdjnVFC68yUzevRo+c1vfuON1TeR/x8l1+kho85t+wAAAABJRU5ErkJggg==;" vertex="1" parent="1">
          <mxGeometry x="1287" y="230" width="672" height="545" as="geometry" />
        </mxCell>
      </root>
    </mxGraphModel>
  </diagram>
</mxfile>
